<svg xmlns="http://www.w3.org/2000/svg" viewBox="0 0 2324.58 345.97"><g id="Layer_2" data-name="Layer 2"><g id="Layer_1-2" data-name="Layer 1"><path d="M146.49,94.19c-42.05,0-70.3,28.92-70.3,72s28.25,72,70.3,72,70.31-28.93,70.31-72S188.55,94.19,146.49,94.19Z"/><path d="M0,28.49v289A28.5,28.5,0,0,0,28.49,346H765.54A28.5,28.5,0,0,0,794,317.48v-289A28.5,28.5,0,0,0,765.54,0h-737A28.5,28.5,0,0,0,0,28.49ZM404.5,39.21h25.72L477,185.34,521.68,39.21h82.65V182.15c0,51.94,39.78,56,52,56s52.31-4,52.31-56V39.21h58.3V181.48c0,67.29-45.48,114.29-110.61,114.29-64.94,0-110.29-47-110.29-114.29V158L511.41,269.17A34,34,0,0,1,478.9,293.1H451.24L403.73,145.55,364,269a34.7,34.7,0,0,1-33,24.06H303.5l-31-99.68c-11.77,59.91-62,102.35-126,102.35-73.32,0-128.61-55.72-128.61-129.61S73.17,36.54,146.49,36.54c34.39,0,64.8,12.26,87.41,32.89l-9.4-30.22h61.28l44.68,146.13L377.25,39.21H403"/><path d="M893.54,149.17c-10.53-2.28-20.47-4.44-27.2-7.65C859,138,859,135,859,133.19c0-3.37,0-12.32,26.55-12.32,25.39,0,27,11.62,27.55,15.44l1.14,8.16h41.93l-1.31-10.62c-1.79-14.51-8.36-26.91-19-35.86C923.71,87.76,907,82.57,886.18,82.57c-21.31,0-38.11,4.48-49.95,13.3-12.32,9.18-18.83,22.82-18.83,39.44,0,17,7.85,30.09,23.33,38.84,12.2,6.9,27.17,10.2,41.64,13.38,21.63,4.76,35.8,8.53,35.8,17.38,0,14-26.27,14.44-29.27,14.44-19.86,0-31.56-7.82-32.95-22l-.84-8.54h-42.2l.57,10c1.67,29.3,25.54,58.86,75.12,58.86,43.91,0,71.19-21,71.19-54.86C959.79,163.54,921.5,155.23,893.54,149.17Z"/><path d="M1220.56,82.57c-24.9,0-46.29,9-61.85,25.87-12.76,13.88-20.52,32.35-22.27,52.72-1.76-20.24-9.45-38.69-22.12-52.67-15.14-16.71-36.52-25.92-60.19-25.92-17.36,0-32.47,4.47-44.71,13.1V85H967.8V315.15h41.62V244.36c12.28,8.75,27.4,13.29,44.71,13.29,23.67,0,45-9.21,60.19-25.92,12.67-14,20.36-32.43,22.12-52.67,1.75,20.37,9.51,38.84,22.27,52.72,15.56,16.92,37,25.87,61.85,25.87s46.3-8.95,61.86-25.87c14.61-15.89,22.66-37.79,22.66-61.67s-8-45.78-22.66-61.67C1266.86,91.52,1245.47,82.57,1220.56,82.57Zm0,135.57c-29.62,0-42.89-24.12-42.89-48s13.27-48,42.89-48,42.89,24.12,42.89,48S1250.19,218.14,1220.56,218.14ZM1051.1,122.08c30.3,0,44.1,24.9,44.1,48s-13.8,48-44.1,48c-29.63,0-42.89-24.12-42.89-48S1021.47,122.08,1051.1,122.08Z"/><path d="M1582.28,149.17c-10.52-2.28-20.46-4.44-27.2-7.65-7.31-3.5-7.31-6.52-7.31-8.33,0-3.37,0-12.32,26.55-12.32,25.39,0,27,11.62,27.54,15.44l1.14,8.16h41.94l-1.31-10.62c-1.79-14.51-8.36-26.91-19-35.86-12.18-10.23-28.9-15.42-49.71-15.42-21.3,0-38.11,4.48-50,13.3A45.16,45.16,0,0,0,1509,117.45V85h-34.81V30.82h-41.62V85h-19.8V82.57h-11c-20.5,0-35.65,7.81-46.22,17.61V85H1314V255.23h41.62v-76c0-26.66,15.78-55,45-55h12.19v-.3h19.8V255.23h41.62V123.89h33a56.92,56.92,0,0,0-1.13,11.42c0,17,7.85,30.09,23.33,38.84,12.21,6.9,27.17,10.2,41.65,13.38,21.62,4.76,35.8,8.53,35.8,17.38,0,14-26.28,14.44-29.28,14.44-19.85,0-31.55-7.82-32.94-22l-.84-8.54h-42.2l.57,10c1.66,29.3,25.53,58.86,75.11,58.86,43.92,0,71.2-21,71.2-54.86C1648.54,163.54,1610.24,155.23,1582.28,149.17Z"/><polygon points="1840.5 84.99 1811.01 185.03 1779.79 84.99 1741.06 84.99 1709.84 185.03 1680.35 84.99 1636.17 84.99 1689.62 255.23 1729.55 255.23 1760.42 156.68 1791.3 255.23 1831.22 255.23 1884.68 84.99 1840.5 84.99"/><path d="M2165.84,95.86c-12.28-8.75-27.39-13.29-44.7-13.29-23.67,0-45,9.21-60.2,25.92-11.13,12.29-18.41,28-21.2,45.42-2.8-17.48-10.14-33.26-21.37-45.47-15.56-16.92-36.95-25.87-61.85-25.87s-46.29,9-61.85,25.87c-14.62,15.89-22.66,37.79-22.66,61.67s8.35,45.75,23.51,61.77c15.72,16.62,37.92,25.77,62.51,25.77,37.14,0,64.77-18.48,77.82-52l5-12.9h-44.29l-2.68,5c-5,9.33-15.3,20.45-35.56,20.45s-35.66-11.26-41.78-29.49h123.59c3.06,16.45,10.17,31.35,20.8,43.08,15.15,16.71,36.53,25.92,60.2,25.92,17.35,0,32.47-4.47,44.7-13.1v10.68h41.63V85h-41.63Zm-41.67,122.28c-30.3,0-44.1-24.9-44.1-48s13.8-48,44.1-48c29.62,0,42.89,24.12,42.89,48S2153.79,218.14,2124.17,218.14Zm-167.65-96.06c18.72,0,32.76,9.69,39.18,26.46h-78.36C1923.76,131.77,1937.8,122.08,1956.52,122.08Z"/><path d="M2313.6,82.57c-20.5,0-35.65,7.81-46.22,17.61V85h-41.62V255.23h41.62v-76c0-26.66,15.78-55,45-55h12.19V82.57Z"/></g></g></svg>