<svg id="Layer_1" data-name="Layer 1" xmlns="http://www.w3.org/2000/svg" viewBox="0 0 435.62 66.46"><defs><style>.cls-1{fill:lime;}.cls-2{font-size:60px;stroke:#000;stroke-miterlimit:10;stroke-width:4px;font-family:Questrial-Regular, Questrial;letter-spacing:-0.03em;}.cls-3{letter-spacing:-0.03em;}.cls-4{letter-spacing:-0.03em;}</style></defs><path class="cls-1" d="M26.83,17.23c-7.58,0-12.66,5.21-12.66,13s5.08,13,12.66,13,12.66-5.21,12.66-13S34.4,17.23,26.83,17.23Z" transform="translate(-0.45 2.3)"/><path class="cls-1" d="M.45,5.4v52a5.13,5.13,0,0,0,5.13,5.13H138.3a5.13,5.13,0,0,0,5.13-5.13V5.4A5.13,5.13,0,0,0,138.3.27H5.58A5.13,5.13,0,0,0,.45,5.4ZM73.28,7.33h4.64l8.42,26.32,8-26.32h14.88V33.07c0,9.35,7.16,10.08,9.36,10.08s9.42-.73,9.42-10.08V7.33h10.49V33c0,12.12-8.19,20.58-19.91,20.58S98.77,45.07,98.77,33V28.71l-6.24,20a6.13,6.13,0,0,1-5.85,4.31h-5L73.15,26.48,66,48.72A6.25,6.25,0,0,1,60,53.05H55.1L49.51,35.1A22.58,22.58,0,0,1,26.83,53.53c-13.21,0-23.16-10-23.16-23.34s10-23.34,23.16-23.34a23.13,23.13,0,0,1,15.74,5.92l-1.7-5.44h11l8,26.32L68.38,7.33H73" transform="translate(-0.45 2.3)"/><text class="cls-2" transform="translate(145.69 51.86)">sports<tspan class="cls-3" x="158.58" y="0">w</tspan><tspan class="cls-4" x="202.08" y="0">ear</tspan></text></svg>